<svg width="420" height="720" viewBox="0 0 420 720" fill="none" xmlns="http://www.w3.org/2000/svg">
  <circle cx="105" cy="132" r="88" fill="#DCEDEC"/>
  <circle cx="286" cy="356" r="72" fill="#E8E3D8"/>
  <circle cx="132" cy="610" r="88" fill="#DCEDEC"/>
  <circle cx="45" cy="425" r="18" fill="#70D4CD"/>
  <circle cx="363" cy="150" r="13" fill="#E1BD78"/>

  <g transform="translate(20 68) rotate(-7 78 91)">
    <rect width="156" height="182" rx="16" fill="#FFFFFF"/>
    <path d="M0 16C0 7.163 7.163 0 16 0H140C148.837 0 156 7.163 156 16V30H0V16Z" fill="#08747B"/>
    <circle cx="18" cy="15" r="6" fill="#70D4CD"/>
    <rect x="34" y="11" width="48" height="8" rx="4" fill="#DCEDEC"/>
    <rect x="18" y="50" width="118" height="7" rx="3.5" fill="#D8DEDE"/>
    <rect x="18" y="66" width="94" height="7" rx="3.5" fill="#D8DEDE"/>
    <rect x="18" y="82" width="108" height="7" rx="3.5" fill="#D8DEDE"/>
    <rect x="18" y="107" width="52" height="26" rx="8" fill="#DCEDEC"/>
    <rect x="78" y="107" width="60" height="26" rx="8" fill="#F2E5C9"/>
    <rect x="18" y="147" width="72" height="8" rx="4" fill="#08747B"/>
    <circle cx="124" cy="150" r="18" fill="#E1BD78"/>
    <path d="M116 150L122 156L133 143" fill="none" stroke="#75521E" stroke-width="4" stroke-linecap="round" stroke-linejoin="round"/>
  </g>

  <g transform="translate(252 76)">
    <rect width="118" height="144" rx="22" fill="#055B61"/>
    <rect x="20" y="20" width="78" height="34" rx="10" fill="#DCEDEC"/>
    <rect x="24" y="25" width="70" height="24" rx="7" fill="#FFFFFF"/>
    <g fill="#70D4CD">
      <rect x="20" y="70" width="22" height="20" rx="6"/>
      <rect x="48" y="70" width="22" height="20" rx="6"/>
      <rect x="76" y="70" width="22" height="20" rx="6"/>
    </g>
    <g fill="#E1BD78">
      <rect x="20" y="97" width="22" height="20" rx="6"/>
      <rect x="48" y="97" width="22" height="20" rx="6"/>
      <rect x="76" y="97" width="22" height="20" rx="6"/>
    </g>
  </g>

  <g transform="translate(148 276)">
    <rect width="225" height="142" rx="18" fill="#FFFFFF"/>
    <path d="M0 18C0 8.059 8.059 0 18 0H207C216.941 0 225 8.059 225 18V40H0V18Z" fill="#08747B"/>
    <rect x="34" y="-8" width="13" height="24" rx="6.5" fill="#70D4CD"/>
    <rect x="178" y="-8" width="13" height="24" rx="6.5" fill="#70D4CD"/>
    <circle cx="25" cy="66" r="10" fill="#64C6FF"/>
    <circle cx="25" cy="101" r="10" fill="#E1BD78"/>
    <circle cx="25" cy="126" r="6" fill="#00C978"/>
    <rect x="46" y="57" width="64" height="18" rx="9" fill="#DCEDEC"/>
    <rect x="46" y="92" width="91" height="18" rx="9" fill="#F2E5C9"/>
    <rect x="46" y="119" width="54" height="12" rx="6" fill="#D8DEDE"/>
    <circle cx="181" cy="89" r="27" fill="#08747B"/>
    <path d="M169 89L178 98L195 79" fill="none" stroke="#FFFFFF" stroke-width="6" stroke-linecap="round" stroke-linejoin="round"/>
  </g>

  <g transform="translate(18 350)">
    <circle cx="43" cy="43" r="43" fill="#FFFFFF"/>
    <circle cx="43" cy="43" r="34" fill="#DCEDEC"/>
    <path d="M20 35L43 20L66 35H20Z" fill="#08747B"/>
    <rect x="22" y="38" width="42" height="5" rx="2.5" fill="#055B61"/>
    <rect x="25" y="46" width="7" height="21" rx="2" fill="#08747B"/>
    <rect x="36" y="46" width="7" height="21" rx="2" fill="#08747B"/>
    <rect x="47" y="46" width="7" height="21" rx="2" fill="#08747B"/>
    <rect x="58" y="46" width="7" height="21" rx="2" fill="#08747B"/>
    <rect x="19" y="70" width="48" height="6" rx="3" fill="#055B61"/>
  </g>

  <g transform="translate(54 536)">
    <circle cx="58" cy="58" r="58" fill="#F0BC56"/>
    <circle cx="58" cy="58" r="48" fill="#FFCD6C"/>
    <path d="M58 30V86M68 41H52C44 41 39 45 39 52C39 59 45 62 53 64L63 67C71 69 76 73 76 80C76 87 70 92 62 92H45" fill="none" stroke="#946928" stroke-width="7" stroke-linecap="round"/>
  </g>

  <g transform="translate(215 566) rotate(-8 86 53)">
    <rect width="172" height="106" rx="18" fill="#08747B"/>
    <path d="M0 18C0 8.059 8.059 0 18 0H154C163.941 0 172 8.059 172 18V31H0V18Z" fill="#055B61"/>
    <rect x="18" y="44" width="30" height="24" rx="6" fill="#F0BC56"/>
    <rect x="58" y="47" width="46" height="7" rx="3.5" fill="#70D4CD"/>
    <circle cx="62" cy="76" r="4" fill="#DCEDEC"/>
    <circle cx="74" cy="76" r="4" fill="#DCEDEC"/>
    <circle cx="86" cy="76" r="4" fill="#DCEDEC"/>
    <rect x="18" y="88" width="68" height="7" rx="3.5" fill="#FFFFFF" opacity="0.7"/>
    <path d="M136 45C142 51 142 61 136 67M145 39C155 48 155 64 145 73" fill="none" stroke="#FFFFFF" stroke-width="4" stroke-linecap="round" opacity="0.85"/>
  </g>

  <g transform="translate(178 18) rotate(-18 32 22)">
    <ellipse cx="34" cy="25" rx="34" ry="23" fill="#F0BC56"/>
    <ellipse cx="31" cy="20" rx="34" ry="23" fill="#FFCD6C"/>
    <rect x="27" y="-3" width="12" height="47" rx="6" fill="#FFD88B" transform="rotate(-24 33 20)"/>
  </g>

  <g transform="translate(326 457)">
    <circle cx="25" cy="25" r="25" fill="#DCEDEC"/>
    <circle cx="21" cy="21" r="12" fill="none" stroke="#64C6FF" stroke-width="7"/>
    <path d="M30 31L43 44" fill="none" stroke="#64C6FF" stroke-width="7" stroke-linecap="round"/>
  </g>

  <g transform="translate(8 660) rotate(8 34 19)">
    <path d="M2 10C21 -2 37 5 54 1C61 0 65 4 66 10L70 31C51 43 34 36 17 40C10 41 6 37 5 31L2 10Z" fill="#00C978"/>
    <circle cx="36" cy="20" r="9" fill="#DCEDEC"/>
    <rect x="10" y="14" width="5" height="14" rx="2.5" fill="#DCEDEC"/>
    <rect x="57" y="12" width="5" height="14" rx="2.5" fill="#DCEDEC"/>
  </g>

  <circle cx="386" cy="515" r="9" fill="#70D4CD"/>
  <circle cx="350" cy="674" r="15" fill="#E1BD78"/>
  <path d="M382 244H398V260H382V244Z" fill="#FFCD6C" transform="rotate(45 390 252)"/>
  <path d="M393 366C393 377 401 384 412 384C401 384 393 391 393 402C393 391 385 384 374 384C385 384 393 377 393 366Z" fill="#FF6F41"/>
  <circle cx="210" cy="485" r="8" fill="#64C6FF"/>
</svg>
